<mxfile host="app.diagrams.net" modified="2021-11-18T07:00:00.530Z" agent="5.0 (X11)" etag="YDqCKPl9LDPh5VWoMJc3" version="15.8.2" type="github">
  <diagram id="blRgcWdChYrXBXfzRITu" name="Page-1">
    <mxGraphModel dx="918" dy="476" grid="1" gridSize="10" guides="1" tooltips="1" connect="1" arrows="1" fold="1" page="1" pageScale="1" pageWidth="850" pageHeight="1100" math="0" shadow="0">
      <root>
        <mxCell id="0" />
        <mxCell id="1" parent="0" />
        <mxCell id="JpNp-a2PqMTTFJ0xIhB9-3" value="TOPOLOGI SERVER " style="text;html=1;strokeColor=none;fillColor=none;align=center;verticalAlign=middle;whiteSpace=wrap;rounded=0;fontStyle=1" parent="1" vertex="1">
          <mxGeometry x="340" y="20" width="170" height="30" as="geometry" />
        </mxCell>
        <mxCell id="JpNp-a2PqMTTFJ0xIhB9-14" value="" style="strokeColor=#666666;html=1;verticalLabelPosition=bottom;labelBackgroundColor=#ffffff;verticalAlign=top;outlineConnect=0;shadow=0;dashed=0;shape=mxgraph.rackGeneral.container;container=1;collapsible=0;childLayout=rack;allowGaps=1;marginLeft=9;marginRight=9;marginTop=21;marginBottom=22;textColor=#666666;numDisp=off;" parent="1" vertex="1">
          <mxGeometry x="180" y="80" width="160" height="500" as="geometry" />
        </mxCell>
        <mxCell id="JpNp-a2PqMTTFJ0xIhB9-31" value="" style="html=1;verticalLabelPosition=bottom;verticalAlign=top;outlineConnect=0;shadow=0;dashed=0;shape=mxgraph.rack.hpe_aruba.switches.jl728a_aruba_6200f_48_port_1gbe_class_4_poe_and_4_port_sfpplus_740w_switch;" parent="JpNp-a2PqMTTFJ0xIhB9-14" vertex="1">
          <mxGeometry x="9" y="30" width="142" height="15" as="geometry" />
        </mxCell>
        <mxCell id="JpNp-a2PqMTTFJ0xIhB9-53" value="" style="shape=mxgraph.rack.ibm.ibm_x3750;html=1;labelPosition=right;align=left;spacingLeft=15;dashed=0;shadow=0;fillColor=#ffffff;" parent="JpNp-a2PqMTTFJ0xIhB9-14" vertex="1">
          <mxGeometry x="9" y="110" width="142" height="20" as="geometry" />
        </mxCell>
        <mxCell id="JpNp-a2PqMTTFJ0xIhB9-17" value="" style="shape=mxgraph.rack.ibm.ibm_x3750;html=1;labelPosition=right;align=left;spacingLeft=15;dashed=0;shadow=0;fillColor=#ffffff;" parent="JpNp-a2PqMTTFJ0xIhB9-14" vertex="1">
          <mxGeometry x="9" y="140" width="142" height="20" as="geometry" />
        </mxCell>
        <mxCell id="JpNp-a2PqMTTFJ0xIhB9-30" value="" style="html=1;verticalLabelPosition=bottom;verticalAlign=top;outlineConnect=0;shadow=0;dashed=0;shape=mxgraph.rack.hpe_aruba.switches.jl072a_hpe_aruba_3810m_48_port_gt_1_slot_switch;" parent="JpNp-a2PqMTTFJ0xIhB9-14" vertex="1">
          <mxGeometry x="9" y="50" width="142" height="15" as="geometry" />
        </mxCell>
        <mxCell id="l7hxLa004CBx91Q3enPo-6" value="" style="shape=mxgraph.rack.ibm.ibm_x3750;html=1;labelPosition=right;align=left;spacingLeft=15;dashed=0;shadow=0;fillColor=#ffffff;" parent="JpNp-a2PqMTTFJ0xIhB9-14" vertex="1">
          <mxGeometry x="9" y="170" width="142" height="20" as="geometry" />
        </mxCell>
        <mxCell id="l7hxLa004CBx91Q3enPo-7" value="" style="shape=mxgraph.rack.ibm.ibm_x3750;html=1;labelPosition=right;align=left;spacingLeft=15;dashed=0;shadow=0;fillColor=#ffffff;" parent="JpNp-a2PqMTTFJ0xIhB9-14" vertex="1">
          <mxGeometry x="9" y="200" width="142" height="20" as="geometry" />
        </mxCell>
        <mxCell id="l7hxLa004CBx91Q3enPo-8" value="" style="shape=mxgraph.rack.ibm.ibm_x3750;html=1;labelPosition=right;align=left;spacingLeft=15;dashed=0;shadow=0;fillColor=#ffffff;" parent="JpNp-a2PqMTTFJ0xIhB9-14" vertex="1">
          <mxGeometry x="9" y="230" width="142" height="20" as="geometry" />
        </mxCell>
        <mxCell id="l7hxLa004CBx91Q3enPo-9" value="" style="shape=mxgraph.rack.ibm.ibm_x3750;html=1;labelPosition=right;align=left;spacingLeft=15;dashed=0;shadow=0;fillColor=#ffffff;" parent="JpNp-a2PqMTTFJ0xIhB9-14" vertex="1">
          <mxGeometry x="9" y="260" width="142" height="20" as="geometry" />
        </mxCell>
        <mxCell id="l7hxLa004CBx91Q3enPo-10" value="" style="shape=mxgraph.rack.ibm.ibm_x3750;html=1;labelPosition=right;align=left;spacingLeft=15;dashed=0;shadow=0;fillColor=#ffffff;" parent="JpNp-a2PqMTTFJ0xIhB9-14" vertex="1">
          <mxGeometry x="9" y="290" width="142" height="20" as="geometry" />
        </mxCell>
        <mxCell id="l7hxLa004CBx91Q3enPo-11" value="" style="shape=mxgraph.rack.ibm.ibm_x3750;html=1;labelPosition=right;align=left;spacingLeft=15;dashed=0;shadow=0;fillColor=#ffffff;" parent="JpNp-a2PqMTTFJ0xIhB9-14" vertex="1">
          <mxGeometry x="9" y="320" width="142" height="20" as="geometry" />
        </mxCell>
        <mxCell id="l7hxLa004CBx91Q3enPo-12" value="" style="shape=mxgraph.rack.ibm.ibm_x3750;html=1;labelPosition=right;align=left;spacingLeft=15;dashed=0;shadow=0;fillColor=#ffffff;" parent="JpNp-a2PqMTTFJ0xIhB9-14" vertex="1">
          <mxGeometry x="9" y="350" width="142" height="20" as="geometry" />
        </mxCell>
        <mxCell id="5qCa6gaH0spSCSgs7kLO-9" value="" style="shape=mxgraph.rack.ibm.ibm_x3750;html=1;labelPosition=right;align=left;spacingLeft=15;dashed=0;shadow=0;fillColor=#ffffff;" vertex="1" parent="JpNp-a2PqMTTFJ0xIhB9-14">
          <mxGeometry x="9" y="380" width="142" height="20" as="geometry" />
        </mxCell>
        <mxCell id="5qCa6gaH0spSCSgs7kLO-10" value="" style="shape=mxgraph.rack.ibm.ibm_x3750;html=1;labelPosition=right;align=left;spacingLeft=15;dashed=0;shadow=0;fillColor=#ffffff;" vertex="1" parent="JpNp-a2PqMTTFJ0xIhB9-14">
          <mxGeometry x="9" y="410" width="142" height="20" as="geometry" />
        </mxCell>
        <mxCell id="5qCa6gaH0spSCSgs7kLO-11" value="" style="shape=mxgraph.rack.ibm.ibm_x3750;html=1;labelPosition=right;align=left;spacingLeft=15;dashed=0;shadow=0;fillColor=#ffffff;" vertex="1" parent="JpNp-a2PqMTTFJ0xIhB9-14">
          <mxGeometry x="9" y="440" width="142" height="20" as="geometry" />
        </mxCell>
        <mxCell id="l7hxLa004CBx91Q3enPo-1" value="1" style="text;html=1;strokeColor=none;fillColor=none;align=center;verticalAlign=middle;whiteSpace=wrap;rounded=0;fontStyle=1" parent="1" vertex="1">
          <mxGeometry x="331" y="112" width="10" height="11" as="geometry" />
        </mxCell>
        <mxCell id="l7hxLa004CBx91Q3enPo-3" value="&lt;div&gt;2&lt;/div&gt;" style="text;html=1;strokeColor=none;fillColor=none;align=center;verticalAlign=middle;whiteSpace=wrap;rounded=0;fontStyle=1" parent="1" vertex="1">
          <mxGeometry x="331" y="133" width="10" height="11" as="geometry" />
        </mxCell>
        <mxCell id="l7hxLa004CBx91Q3enPo-4" value="3" style="text;html=1;strokeColor=none;fillColor=none;align=center;verticalAlign=middle;whiteSpace=wrap;rounded=0;fontStyle=1" parent="1" vertex="1">
          <mxGeometry x="331" y="193" width="10" height="11" as="geometry" />
        </mxCell>
        <mxCell id="l7hxLa004CBx91Q3enPo-5" value="4" style="text;html=1;strokeColor=none;fillColor=none;align=center;verticalAlign=middle;whiteSpace=wrap;rounded=0;fontStyle=1" parent="1" vertex="1">
          <mxGeometry x="330" y="225" width="10" height="11" as="geometry" />
        </mxCell>
        <mxCell id="5qCa6gaH0spSCSgs7kLO-1" value="5" style="text;html=1;strokeColor=none;fillColor=none;align=center;verticalAlign=middle;whiteSpace=wrap;rounded=0;fontStyle=1" vertex="1" parent="1">
          <mxGeometry x="330" y="255" width="10" height="11" as="geometry" />
        </mxCell>
        <mxCell id="5qCa6gaH0spSCSgs7kLO-2" value="6" style="text;html=1;strokeColor=none;fillColor=none;align=center;verticalAlign=middle;whiteSpace=wrap;rounded=0;fontStyle=1" vertex="1" parent="1">
          <mxGeometry x="330" y="284" width="10" height="11" as="geometry" />
        </mxCell>
        <mxCell id="5qCa6gaH0spSCSgs7kLO-3" value="7" style="text;html=1;strokeColor=none;fillColor=none;align=center;verticalAlign=middle;whiteSpace=wrap;rounded=0;fontStyle=1" vertex="1" parent="1">
          <mxGeometry x="330" y="315" width="10" height="11" as="geometry" />
        </mxCell>
        <mxCell id="5qCa6gaH0spSCSgs7kLO-4" value="8" style="text;html=1;strokeColor=none;fillColor=none;align=center;verticalAlign=middle;whiteSpace=wrap;rounded=0;fontStyle=1" vertex="1" parent="1">
          <mxGeometry x="330" y="344" width="10" height="11" as="geometry" />
        </mxCell>
        <mxCell id="5qCa6gaH0spSCSgs7kLO-5" value="9" style="text;html=1;strokeColor=none;fillColor=none;align=center;verticalAlign=middle;whiteSpace=wrap;rounded=0;fontStyle=1" vertex="1" parent="1">
          <mxGeometry x="330" y="375" width="10" height="11" as="geometry" />
        </mxCell>
        <mxCell id="5qCa6gaH0spSCSgs7kLO-6" value="10" style="text;html=1;strokeColor=none;fillColor=none;align=center;verticalAlign=middle;whiteSpace=wrap;rounded=0;fontStyle=1" vertex="1" parent="1">
          <mxGeometry x="330" y="405" width="10" height="11" as="geometry" />
        </mxCell>
        <mxCell id="5qCa6gaH0spSCSgs7kLO-7" value="11" style="text;html=1;strokeColor=none;fillColor=none;align=center;verticalAlign=middle;whiteSpace=wrap;rounded=0;fontStyle=1" vertex="1" parent="1">
          <mxGeometry x="330" y="434" width="10" height="11" as="geometry" />
        </mxCell>
        <mxCell id="5qCa6gaH0spSCSgs7kLO-12" value="14" style="text;html=1;strokeColor=none;fillColor=none;align=center;verticalAlign=middle;whiteSpace=wrap;rounded=0;fontStyle=1" vertex="1" parent="1">
          <mxGeometry x="330" y="525" width="10" height="11" as="geometry" />
        </mxCell>
        <mxCell id="5qCa6gaH0spSCSgs7kLO-13" value="13" style="text;html=1;strokeColor=none;fillColor=none;align=center;verticalAlign=middle;whiteSpace=wrap;rounded=0;fontStyle=1" vertex="1" parent="1">
          <mxGeometry x="329" y="497" width="10" height="11" as="geometry" />
        </mxCell>
        <mxCell id="5qCa6gaH0spSCSgs7kLO-14" value="12" style="text;html=1;strokeColor=none;fillColor=none;align=center;verticalAlign=middle;whiteSpace=wrap;rounded=0;fontStyle=1" vertex="1" parent="1">
          <mxGeometry x="331" y="465" width="10" height="11" as="geometry" />
        </mxCell>
      </root>
    </mxGraphModel>
  </diagram>
</mxfile>
